<svg width="31" height="27" viewBox="0 0 31 27" fill="none" xmlns="http://www.w3.org/2000/svg">
<path d="M17.6647 4.89626e-06C17.3818 -0.000389167 17.0994 0.0230038 16.8204 0.0699401H16.7724C16.6691 0.0878723 16.5658 0.109391 16.4642 0.132702C16.2465 0.18433 16.0323 0.250221 15.823 0.329956C15.7197 0.3712 15.6164 0.414237 15.5149 0.460861C15.4134 0.507485 15.3493 0.539761 15.2691 0.584592C15.189 0.629422 15.1373 0.654528 15.0732 0.692186C14.2854 1.14973 13.6311 1.80809 13.1762 2.60104C12.7212 3.39399 12.4817 4.29357 12.4817 5.20929V20.8605H0V26.0787H12.4853C13.3954 26.0812 14.2895 25.8385 15.075 25.3758C15.8632 24.9193 16.5178 24.2614 16.9725 23.4685C17.4272 22.6757 17.666 21.776 17.6647 20.8605V5.21826H30.1535V0.00179713H17.6647V4.89626e-06Z" fill="#EE4036"/>
</svg>
